#tb 0: 1/25
#media_type 0: video
#codec_id 0: rawvideo
#dimensions 0: 192x128
#sar 0: 0/1
0,          0,          0,        1,    36864, 0xdee3d4e3
0,          1,          1,        1,    36864, 0xabec8d44
0,          2,          2,        1,    36864, 0x95d029fe
0,          3,          3,        1,    36864, 0x4daeb4b9
0,          4,          4,        1,    36864, 0x320a6301
0,          5,          5,        1,    36864, 0x6b881d0c
0,          6,          6,        1,    36864, 0xfe6eda15
0,          7,          7,        1,    36864, 0xda72d0b2
0,          8,          8,        1,    36864, 0x3232651b
0,          9,          9,        1,    36864, 0x9f20cbf1
0,         10,         10,        1,    36864, 0x5dfbd085
0,         11,         11,        1,    36864, 0x2bb62dd1
0,         12,         12,        1,    36864, 0xf8ed11cf
0,         13,         13,        1,    36864, 0x1ed62476
0,         14,         14,        1,    36864, 0x65b18976
0,         15,         15,        1,    36864, 0x1658c18b
0,         16,         16,        1,    36864, 0x76073a08
